# xmcd
#
# Track frame offsets:
#	150
#	14751
#	30725
#	50423
#
# Disc length: 949 seconds
#
# Revision: 0
# Processed by: cddbd v1.5.2PL0 Copyright (c) Steve Scherf et al.
# Submitted via: audiograbber 1.83.01
#
DISCID=2e03b304
DTITLE=Raisin' Cain - Demo CD
DYEAR=1900
DGENRE=Country
TTITLE0=Raisin' Cain - Thousand Miles Away
TTITLE1=Raisin' Cain - Everything's Gonna Be Alright
TTITLE2=Raisin' Cain - How Could You Do That To Him
TTITLE3=Raisin' Cain - Walkin' After Midnight
EXTD=
EXTT0=
EXTT1=
EXTT2=
EXTT3=
PLAYORDER=
